# Blender 3.5.0
# www.blender.org
mtllib BoatCollider.mtl
o 3DBenchy_Collider
v -2.906965 0.921813 0.985399
v -2.913355 1.066226 0.959539
v -2.859939 1.066411 1.057729
v -2.618312 0.349423 0.788820
v -2.773670 1.057553 1.114162
v -2.402703 0.000000 0.654954
v -2.505894 0.000000 0.530122
v -2.875833 1.198726 -0.000633
v -2.800147 0.918072 1.106584
v -1.164406 0.959235 1.306534
v -0.805149 3.798437 0.858134
v -0.726555 4.783242 0.122818
v -0.653910 4.797269 0.225146
v -0.481697 4.794615 0.334626
v -0.065150 4.800752 -0.000585
v -2.911518 1.064289 -0.977054
v -2.906726 0.924420 -0.988541
v -2.502176 0.000000 -0.543597
v -2.788980 0.916219 -1.111874
v -2.846420 1.066318 -1.068815
v -2.588774 0.307941 -0.781666
v -2.385039 0.000000 -0.658141
v -2.766071 1.056949 -1.116416
v -1.337616 0.947899 -1.284424
v -0.743984 4.789972 -0.029624
v -0.691540 4.791653 -0.185752
v -0.803011 3.798675 -0.858814
v -0.545131 4.794159 -0.311148
v -0.363874 4.793025 -0.342460
v -0.163841 4.796778 -0.241843
v 0.062971 0.615055 1.230382
v 0.231436 0.000000 0.801551
v 0.118605 1.208612 1.524783
v 0.544221 1.312372 1.552956
v 0.473702 0.746049 1.272908
v 0.341236 0.367477 1.052054
v 0.973186 1.873397 1.539068
v 0.957764 2.059751 1.538588
v 0.785503 0.813290 1.244105
v 0.667179 0.450213 1.039745
v 1.011319 0.664861 1.073293
v 0.676738 0.000000 0.687419
v 1.064626 0.988102 1.249784
v 1.110661 0.422816 0.832134
v 1.071479 0.000000 0.435966
v 1.319230 2.106516 1.457169
v 1.688534 2.207469 1.310665
v 1.473312 1.233274 1.187955
v 1.299263 1.421303 1.329605
v 1.350933 0.901037 1.068208
v 1.611938 1.580325 1.228891
v 1.705635 1.059089 0.953970
v 1.475300 0.663243 0.818173
v 2.026737 2.311327 1.127586
v 1.882669 1.526298 1.061417
v 1.905394 0.914623 0.689792
v 1.942790 0.469648 0.054555
v 1.761753 0.502387 0.381820
v 2.264542 1.011258 0.393436
v 2.338096 0.855189 0.069314
v 2.413834 1.968423 0.793767
v 2.332764 2.363951 0.910737
v 2.429944 2.549865 0.794139
v 2.199752 1.318841 0.714502
v 2.554671 1.791274 0.609140
v 2.590605 1.377139 0.286625
v -0.309712 4.795743 0.324378
v -0.161467 4.797021 0.237975
v 1.373032 4.018812 0.897042
v 1.305386 4.006714 0.974356
v 2.743424 1.955017 0.433988
v 2.616669 1.185899 0.050799
v 2.704734 2.468507 0.568955
v 2.920184 2.544113 0.306534
v 2.834360 1.599364 0.068613
v 2.846763 1.596495 -0.042929
v 2.960494 1.968331 0.049952
v 2.787411 2.643988 0.428299
v 3.069509 2.589040 0.087600
v 3.016869 2.719474 0.110885
v 3.045751 2.726290 0.001708
v 3.081411 2.590724 -0.033129
v 0.281060 0.000000 -0.797967
v 0.024730 0.704340 -1.277613
v 0.121642 1.188675 -1.519584
v 0.117421 0.357037 -1.060202
v 0.427290 0.624253 -1.212438
v 0.381642 1.390763 -1.547669
v 0.727488 0.389643 -0.977390
v 0.780917 0.779135 -1.228582
v 0.568687 1.323752 -1.550149
v 0.962003 2.084028 -1.536377
v 0.810509 0.000000 -0.624428
v 1.127855 0.565854 -0.947954
v 1.134873 1.117540 -1.287929
v 0.999896 1.911943 -1.536881
v 1.200813 0.000000 -0.304106
v 1.504557 0.450246 -0.581074
v 1.337531 0.986668 -1.133178
v 1.317869 2.116600 -1.455658
v 1.402201 0.000000 0.004121
v 1.552241 0.703794 -0.796530
v 1.731161 1.063934 -0.937760
v 1.380582 1.512910 -1.320159
v 1.624366 1.404865 -1.176449
v 1.968030 1.032950 -0.729655
v 2.021207 0.807846 -0.457102
v 1.998141 1.389474 -0.921170
v 1.890945 1.604081 -1.075600
v 1.716586 2.212689 -1.300732
v 2.084331 0.586288 -0.028592
v 2.237530 1.207816 -0.597583
v 2.036429 2.314546 -1.121762
v 2.028528 0.646823 -0.237651
v 2.525029 1.344475 -0.351396
v 2.423184 1.918154 -0.776596
v 2.452583 2.463026 -0.806364
v 2.452479 0.970309 -0.043064
v 2.407359 1.046977 -0.225386
v 1.336902 4.012217 -0.951485
v 1.277883 3.998260 -0.981081
v 1.374813 4.020807 -0.877363
v 2.551767 1.801419 -0.612154
v 2.692147 2.469773 -0.581166
v 2.656883 1.256330 -0.056442
v 2.710141 1.895359 -0.461273
v 2.960473 1.982605 -0.058965
v 3.038102 2.586899 -0.145619
v 2.838586 2.667654 -0.362238
v 3.020489 2.719924 -0.102731
vn 0.5062 -0.3709 0.7786
vn -0.6256 -0.5841 0.5171
vn 0.9807 -0.1939 -0.0256
vn -0.5595 -0.5997 -0.5722
vn -0.0577 -0.5407 -0.8392
vn -0.0417 -0.6038 -0.7960
vn -0.0453 -0.5797 0.8136
vn -0.6493 -0.5185 0.5563
vn -0.0821 -0.4853 0.8705
vn 0.0223 -0.5677 0.8230
vn 0.1795 -0.5902 0.7871
vn -0.6351 -0.5194 -0.5718
vn -0.3320 -0.5321 -0.7789
vn -0.0937 -0.4747 -0.8751
vn -0.0823 -0.4845 -0.8709
vn -0.4278 -0.5413 0.7239
vn -0.0952 -0.4723 0.8763
vn 0.1786 -0.5729 -0.7999
vn 0.2439 -0.6220 -0.7440
vn -0.7487 -0.0853 0.6573
vn -0.8775 0.0466 0.4773
vn 0.4692 -0.4031 -0.7857
vn -0.1101 -0.2706 0.9564
vn -0.9644 0.2645 -0.0012
vn -0.8156 0.0195 -0.5782
vn -0.0731 -0.4340 -0.8980
vn 0.0836 -0.5647 -0.8210
vn -0.0673 -0.4383 0.8963
vn -0.8437 0.5233 0.1196
vn -0.7236 -0.0803 -0.6855
vn 0.5571 -0.5837 -0.5908
vn -0.1072 -0.2815 -0.9536
vn 0.0336 -0.5239 -0.8511
vn 0.3175 -0.5986 -0.7355
vn 0.4114 -0.6432 0.6458
vn -0.8594 0.5098 -0.0388
vn -0.8592 0.5103 0.0368
vn -0.7455 0.5297 0.4046
vn 0.5875 -0.7124 -0.3839
vn -0.8030 0.5343 -0.2640
vn -0.7015 0.5210 -0.4862
vn -0.4694 0.4102 0.7819
vn -0.7252 0.5275 0.4425
vn -0.2902 0.9540 0.0753
vn -0.4358 0.3883 -0.8120
vn -0.1490 0.1407 -0.9788
vn 0.3181 -0.4765 -0.8196
vn 0.4707 -0.6704 -0.5736
vn -0.1460 0.1280 0.9810
vn -0.5937 0.4930 0.6360
vn 0.3272 -0.5125 -0.7939
vn 0.0500 -0.4475 0.8929
vn 0.5115 -0.6411 0.5721
vn 0.5543 -0.7159 0.4245
vn 0.3336 -0.5931 0.7327
vn -0.0047 0.9995 0.0316
vn -0.0267 0.9996 -0.0112
vn -0.0571 0.9983 -0.0084
vn 0.0534 -0.4548 -0.8890
vn -0.1663 0.2096 -0.9635
vn 0.1903 -0.5279 0.8277
vn 0.5819 -0.7120 0.3931
vn -0.5664 0.5050 -0.6512
vn 0.0504 -0.4477 0.8927
vn -0.4506 0.5255 0.7216
vn 0.0736 -0.4456 -0.8922
vn -0.0815 0.0642 0.9946
vn 0.5964 -0.7143 -0.3660
vn 0.3975 -0.5606 0.7264
vn 0.4623 -0.5163 0.7209
vn 0.1594 -0.4552 -0.8760
vn 0.7873 -0.4334 0.4385
vn 0.5649 -0.6740 -0.4761
vn 0.0262 0.0047 0.9996
vn -0.0812 0.2908 0.9533
vn 0.5709 -0.4574 0.6818
vn -0.1438 0.5054 -0.8508
vn 0.2461 -0.4212 0.8729
vn -0.0959 0.4873 0.8680
vn 0.6524 -0.7563 0.0497
vn 0.2933 -0.4950 0.8179
vn 0.1785 -0.4539 0.8730
vn 0.2172 0.0205 0.9759
vn 0.1831 0.2434 0.9525
vn 0.4427 -0.6346 0.6335
vn -0.0839 0.2904 -0.9532
vn 0.2524 -0.4171 -0.8731
vn 0.5110 -0.3798 -0.7711
vn 0.4770 0.8789 0.0015
vn 0.3113 -0.3326 0.8902
vn 0.3407 -0.1817 0.9225
vn -0.1658 0.2091 0.9637
vn -0.0980 0.4924 -0.8648
vn 0.3544 -0.4925 0.7949
vn 0.1933 0.2438 -0.9504
vn 0.3206 -0.2732 -0.9070
vn 0.8313 -0.1327 0.5398
vn 0.5712 -0.6526 -0.4979
vn 0.3016 0.2369 0.9235
vn 0.3458 -0.1711 -0.9226
vn 0.3110 -0.2071 -0.9276
vn 0.0391 0.6817 0.7305
vn 0.2220 0.8526 -0.4731
vn 0.1305 0.7707 -0.6237
vn 0.5529 -0.5975 -0.5808
vn -0.5970 0.4950 -0.6314
vn 0.6119 0.7909 0.0015
vn 0.2470 0.8651 0.4365
vn 0.6846 -0.7085 0.1715
vn 0.3010 0.2392 -0.9231
vn 0.4086 0.2562 -0.8760
vn 0.3394 -0.3451 0.8751
vn 0.5034 0.2878 0.8147
vn 0.2813 0.8796 0.3837
vn 0.5980 -0.6029 0.5281
vn 0.3851 0.2535 -0.8874
vn 0.4004 0.2500 0.8816
vn 0.6090 0.3842 0.6939
vn 0.6391 0.4432 0.6286
vn 0.5116 -0.5298 0.6765
vn 0.3388 0.8990 -0.2775
vn 0.7346 0.1786 0.6546
vn 0.6648 -0.6512 -0.3660
vn 0.7221 -0.6913 0.0269
vn 0.6895 -0.4484 0.5687
vn 0.3857 0.9063 -0.1727
vn 0.6085 0.3726 -0.7006
vn 0.7330 -0.5430 -0.4097
vn 0.6278 -0.6596 0.4133
vn 0.6676 0.7109 0.2210
vn 0.3866 0.9064 0.1702
vn 0.6645 0.7188 -0.2045
vn 0.6763 0.6077 -0.4163
vn 0.6626 0.4930 -0.5638
vn 0.4049 -0.3645 -0.8386
vn 0.4165 -0.2688 0.8685
vn 0.4026 -0.1665 0.9001
vn 0.6569 0.2583 0.7083
vn 0.5362 0.2292 0.8124
vn -0.5042 0.0543 -0.8619
vn 0.5097 0.2912 -0.8096
vn 0.3842 -0.4350 0.8144
vn 0.3912 -0.1627 -0.9058
vn 0.3833 -0.1798 0.9060
vn 0.9105 0.3209 0.2609
vn 0.6841 -0.0765 -0.7254
vn 0.6503 0.2938 -0.7006
vn 0.7861 0.2137 0.5800
vn 0.7622 -0.6351 0.1253
vn 0.9214 0.3044 -0.2414
vn 0.4368 -0.1853 -0.8803
vn 0.6257 -0.5371 -0.5657
vn 0.4933 -0.1714 0.8528
vn 0.7015 -0.5667 0.4321
vn 0.6285 -0.4944 0.6005
vn 0.9045 0.2346 -0.3562
vn 0.4664 -0.1863 -0.8648
vn 0.4628 -0.2839 0.8398
vn 0.9683 0.2294 0.0987
vn 0.7544 0.1490 -0.6393
vn 0.5205 -0.1611 -0.8385
vn 0.5875 -0.1164 0.8008
vn 0.5577 -0.3809 0.7375
vn 0.5527 -0.1702 0.8158
vn 0.5335 -0.6176 0.5779
vn 0.2916 -0.5857 0.7563
vn 0.7831 -0.1022 0.6135
vn 0.8590 -0.1799 0.4793
vn 0.9796 -0.1777 0.0941
vn 0.9218 -0.1685 -0.3492
vn 0.7921 -0.1008 -0.6020
vn 0.6194 -0.0761 -0.7814
vn 0.6559 0.4746 0.5870
vn 0.6034 -0.4163 -0.6801
vn 0.8730 -0.4876 0.0071
vn 0.6886 -0.4963 -0.5287
vn 0.8093 -0.5821 -0.0788
vn 0.5559 -0.1667 -0.8144
vn 0.8522 -0.1799 -0.4913
vn 0.9419 -0.3163 0.1129
vn 0.7318 -0.4901 -0.4736
vn 0.8776 -0.4668 0.1096
vn 0.8434 -0.2647 0.4676
vn 0.7810 -0.3401 0.5237
vn 0.8430 -0.2677 -0.4665
vn 0.5851 -0.2604 -0.7680
vn -0.9992 -0.0393 -0.0005
vn 0.7800 -0.3402 0.5253
vn 0.6290 -0.3109 -0.7125
vn 0.7038 -0.3975 0.5888
vn 0.6990 -0.3848 -0.6027
vn 0.6436 -0.3573 -0.6768
vn 0.7465 -0.3622 -0.5581
vn 0.7772 -0.3636 -0.5136
vn -0.7785 -0.5155 0.3581
vn 0.6511 0.1288 0.7480
vn 0.2040 -0.5502 -0.8097
vn 0.3985 -0.5574 0.7283
vn 0.2560 -0.5362 0.8044
vn 0.5227 -0.5235 -0.6729
vn 0.7518 0.2611 0.6055
vn 0.7554 0.2895 -0.5878
vn 0.6530 -0.5398 -0.5312
vn 0.5646 -0.4271 -0.7063
vn 0.4479 -0.4446 0.7757
vn -0.5424 0.0574 0.8382
vn 0.6308 -0.6335 0.4482
vn 0.3051 -0.2103 0.9288
vn 0.1984 -0.6014 0.7739
vn -0.0430 -0.0831 -0.9956
vn 0.3788 -0.3066 -0.8732
vn 0.1682 -0.5400 0.8247
vn 0.4328 -0.5350 -0.7256
vn 0.0788 -0.5228 0.8488
vn 0.5082 -0.1645 0.8454
vn 0.2978 -0.5459 -0.7831
vn 0.6643 -0.6159 -0.4234
vn 0.6859 -0.0735 0.7240
vn -0.1391 -0.0274 0.9899
vn 0.4604 -0.5129 -0.7246
vn 0.9582 -0.2837 -0.0374
vn 0.6506 -0.6018 -0.4632
vn -0.7514 -0.5227 -0.4028
vn -0.1378 -0.0095 -0.9904
vn 0.7777 -0.4154 -0.4718
vn -0.1401 0.0427 -0.9892
vn -0.0057 0.0211 -0.9998
vn 0.0206 0.0075 -0.9998
vn 0.7297 -0.1213 0.6730
vn 0.7296 -0.1219 0.6729
vn -0.0042 0.9999 -0.0148
vn -0.0001 0.9993 -0.0370
vn 0.0006 0.9999 0.0159
vn 0.2165 0.0505 -0.9750
vn 0.5283 -0.3060 -0.7920
vn 0.7187 -0.4991 0.4842
vn 0.4346 -0.6182 -0.6549
vn 0.4465 -0.6267 -0.6387
vn 0.7297 -0.1221 -0.6728
vn 0.6105 -0.2911 0.7366
vn -0.0060 1.0000 -0.0003
vn -0.9165 -0.3999 -0.0015
vn -0.0000 -1.0000 -0.0000
s 0
usemtl Material.002
f 55//1 48//1 52//1
f 6//2 4//2 7//2
f 82//3 77//3 127//3
f 21//4 22//4 18//4
f 84//5 86//5 22//5
f 86//6 83//6 22//6
f 32//7 31//7 6//7
f 9//8 1//8 4//8
f 10//9 6//9 31//9
f 36//10 31//10 32//10
f 40//11 36//11 32//11
f 19//12 21//12 17//12
f 19//13 22//13 21//13
f 19//14 24//14 22//14
f 24//15 84//15 22//15
f 6//16 9//16 4//16
f 10//17 9//17 6//17
f 87//18 89//18 83//18
f 89//19 93//19 83//19
f 3//20 1//20 9//20
f 3//21 2//21 1//21
f 105//22 103//22 99//22
f 33//23 9//23 10//23
f 8//24 16//24 2//24
f 16//25 20//25 17//25
f 24//26 85//26 84//26
f 87//27 83//27 86//27
f 33//28 10//28 31//28
f 12//29 25//29 2//29
f 17//30 20//30 19//30
f 102//31 106//31 107//31
f 19//32 85//32 24//32
f 87//33 86//33 84//33
f 89//34 94//34 93//34
f 44//35 42//35 45//35
f 8//36 25//36 16//36
f 2//37 25//37 8//37
f 3//38 12//38 2//38
f 114//39 101//39 97//39
f 25//40 26//40 16//40
f 16//41 26//41 20//41
f 11//42 3//42 5//42
f 13//43 12//43 3//43
f 13//44 25//44 12//44
f 27//45 23//45 20//45
f 92//46 88//46 23//46
f 99//47 90//47 95//47
f 98//48 97//48 93//48
f 33//49 38//49 5//49
f 3//50 11//50 13//50
f 94//51 90//51 99//51
f 33//52 31//52 34//52
f 58//53 53//53 45//53
f 101//54 58//54 45//54
f 41//55 42//55 44//55
f 13//56 14//56 67//56
f 13//57 28//57 26//57
f 13//58 26//58 25//58
f 85//59 87//59 84//59
f 27//60 92//60 23//60
f 39//61 35//61 40//61
f 57//62 58//62 101//62
f 28//63 27//63 26//63
f 31//64 35//64 34//64
f 14//65 13//65 11//65
f 91//66 87//66 85//66
f 34//67 38//67 33//67
f 114//68 111//68 101//68
f 41//69 44//69 53//69
f 52//70 50//70 53//70
f 90//71 87//71 91//71
f 66//72 72//72 75//72
f 114//73 97//73 98//73
f 34//74 37//74 38//74
f 70//75 11//75 38//75
f 64//76 52//76 56//76
f 28//77 29//77 27//77
f 39//78 43//78 34//78
f 70//79 14//79 11//79
f 111//80 57//80 101//80
f 43//81 39//81 41//81
f 39//82 34//82 35//82
f 46//83 38//83 37//83
f 70//84 38//84 46//84
f 53//85 44//85 45//85
f 121//86 92//86 27//86
f 95//87 90//87 91//87
f 108//88 103//88 105//88
f 15//89 69//89 122//89
f 43//90 49//90 34//90
f 49//91 46//91 37//91
f 11//92 5//92 38//92
f 27//93 29//93 121//93
f 43//94 41//94 50//94
f 121//95 100//95 92//95
f 104//96 95//96 91//96
f 79//97 74//97 71//97
f 107//98 114//98 98//98
f 46//99 47//99 70//99
f 100//100 104//100 96//100
f 104//101 91//101 96//101
f 67//102 14//102 70//102
f 30//103 120//103 29//103
f 120//104 121//104 29//104
f 102//105 107//105 98//105
f 26//106 27//106 20//106
f 122//107 69//107 81//107
f 67//108 70//108 68//108
f 60//109 57//109 111//109
f 110//110 100//110 121//110
f 113//111 110//111 120//111
f 48//112 49//112 43//112
f 54//113 63//113 70//113
f 68//114 70//114 69//114
f 56//115 58//115 59//115
f 110//116 121//116 120//116
f 70//117 47//117 54//117
f 63//118 78//118 70//118
f 78//119 69//119 70//119
f 52//120 53//120 56//120
f 122//121 120//121 30//121
f 78//122 73//122 74//122
f 114//123 118//123 111//123
f 118//124 60//124 111//124
f 64//125 59//125 66//125
f 30//126 15//126 122//126
f 129//127 117//127 120//127
f 118//128 119//128 125//128
f 60//129 58//129 57//129
f 80//130 81//130 69//130
f 15//131 68//131 69//131
f 81//132 130//132 122//132
f 130//133 120//133 122//133
f 130//134 129//134 120//134
f 99//135 95//135 105//135
f 48//136 51//136 49//136
f 51//137 47//137 46//137
f 63//138 73//138 78//138
f 62//139 63//139 54//139
f 19//140 20//140 23//140
f 113//141 120//141 117//141
f 43//142 50//142 48//142
f 110//143 104//143 100//143
f 46//144 49//144 51//144
f 80//145 79//145 81//145
f 117//146 124//146 116//146
f 129//147 124//147 117//147
f 74//148 79//148 80//148
f 72//149 60//149 118//149
f 82//150 130//150 81//150
f 110//151 105//151 104//151
f 112//152 107//152 106//152
f 51//153 55//153 47//153
f 59//154 60//154 72//154
f 64//155 56//155 59//155
f 82//156 128//156 130//156
f 109//157 105//157 110//157
f 48//158 55//158 51//158
f 82//159 81//159 79//159
f 124//160 129//160 128//160
f 113//161 109//161 110//161
f 61//162 62//162 54//162
f 64//163 55//163 52//163
f 55//164 61//164 54//164
f 53//165 58//165 56//165
f 41//166 40//166 42//166
f 73//167 71//167 74//167
f 71//168 77//168 79//168
f 77//169 82//169 79//169
f 127//170 128//170 82//170
f 128//171 126//171 124//171
f 117//172 116//172 113//172
f 69//173 78//173 80//173
f 108//174 112//174 106//174
f 125//175 76//175 72//175
f 115//176 119//176 112//176
f 125//177 72//177 118//177
f 109//178 113//178 116//178
f 127//179 126//179 128//179
f 75//180 76//180 77//180
f 115//181 125//181 119//181
f 76//182 75//182 72//182
f 77//183 71//183 75//183
f 66//184 71//184 65//184
f 126//185 127//185 76//185
f 108//186 109//186 116//186
f 2//187 16//187 17//187 1//187
f 75//188 71//188 66//188
f 116//189 123//189 108//189
f 64//190 66//190 65//190
f 115//191 112//191 123//191
f 112//192 108//192 123//192
f 123//193 126//193 115//193
f 126//194 76//194 115//194
f 1//195 7//195 4//195
f 73//196 63//196 62//196
f 90//197 89//197 87//197
f 50//198 41//198 53//198
f 39//199 40//199 41//199
f 106//200 102//200 103//200
f 74//201 80//201 78//201
f 128//202 129//202 130//202
f 107//203 112//203 119//203
f 106//204 103//204 108//204
f 48//205 50//205 52//205
f 9//206 5//206 3//206
f 60//207 59//207 58//207
f 37//208 34//208 49//208
f 40//209 32//209 42//209
f 91//210 85//210 88//210
f 105//211 95//211 104//211
f 35//212 36//212 40//212
f 94//213 99//213 102//213
f 36//214 35//214 31//214
f 55//215 54//215 47//215
f 94//216 89//216 90//216
f 114//217 119//217 118//217
f 61//218 73//218 62//218
f 5//219 9//219 33//219
f 103//220 102//220 99//220
f 127//221 77//221 76//221
f 119//222 114//222 107//222
f 17//223 21//223 18//223
f 23//224 85//224 19//224
f 76//225 125//225 115//225
f 88//226 85//226 23//226
f 88//227 92//227 91//227
f 92//228 96//228 91//228
f 71//229 61//229 65//229
f 71//230 73//230 61//230
f 15//231 30//231 28//231
f 30//232 29//232 28//232
f 68//233 15//233 67//233
f 100//234 96//234 92//234
f 105//235 109//235 108//235
f 66//236 59//236 72//236
f 94//237 102//237 93//237
f 102//238 98//238 93//238
f 126//239 123//239 116//239 124//239
f 61//240 55//240 64//240 65//240
f 15//241 28//241 13//241 67//241
f 1//242 17//242 18//242 7//242
f 6//243 7//243 22//243
f 7//243 18//243 22//243
f 22//243 83//243 32//243
f 83//243 93//243 42//243
f 93//243 97//243 45//243
f 97//243 101//243 45//243
f 45//243 42//243 93//243
f 42//243 32//243 83//243
f 32//243 6//243 22//243
